<svg width="690px" height="575px" CL="0 0 690 575" xmlns="http://www.w3.org/2000/svg" xmlns:xlink="http://www.w3.org/1999/xlink"><g transform="matrix(1, 0, 0, 1, 0, 0)" clip-path="url(#mainClip2379)"><g transform="matrix(1, 0, 0, 1, 201, 251)"><g transform="matrix(1, 0, 0, 1, 120, -50)"><path d="M 5,0 L 278.8728536018236,0 C 281.11142985266963,0 283.8728536018236,2.761423749153968 283.8728536018236,5 L 283.8728536018236,23.92784799421858 C 283.8728536018236,26.16642424506461 281.11142985266963,28.92784799421858 278.8728536018236,28.92784799421858 L 5,28.92784799421858 C 2.761423749153968,28.92784799421858 0,26.16642424506461 0,23.92784799421858 L 0,5 C 0,2.761423749153968 2.761423749153968,0 5,0 z" fill="#C4BD97" stroke="none" transform="matrix(1, 0, 0, 1, 0.5, 0.5)"></path><path d="M 5,0 L 278.8728536018236,0 C 281.11142985266963,0 283.8728536018236,2.761423749153968 283.8728536018236,5 L 283.8728536018236,23.92784799421858 C 283.8728536018236,26.16642424506461 281.11142985266963,28.92784799421858 278.8728536018236,28.92784799421858 L 5,28.92784799421858 C 2.761423749153968,28.92784799421858 0,26.16642424506461 0,23.92784799421858 L 0,5 C 0,2.761423749153968 2.761423749153968,0 5,0 z" fill="none" stroke="black" stroke-width="1" stroke-linecap="butt" stroke-linejoin="miter" stroke-miterlimit="10" transform="matrix(1, 0, 0, 1, 0.5, 0.5)"></path><text x="0" y="11.553750371932985" style="font: bold 12px sans-serif" text-anchor="start" fill="blue" stroke="none" transform="matrix(1, 0, 0, 1, 7.261423749153996, 7.261423749153966)">WFAS_code_aster_実行_熱伝導解析分離版_01</text></g><g transform="matrix(1, 0, 0, 1, 130, 170)"><path d="M 5,0 L 154.87285360182355,0 C 157.11142985266957,0 159.87285360182355,2.761423749153968 159.87285360182355,5 L 159.87285360182355,23.92784799421858 C 159.87285360182355,26.16642424506461 157.11142985266957,28.92784799421858 154.87285360182355,28.92784799421858 L 5,28.92784799421858 C 2.761423749153968,28.92784799421858 0,26.16642424506461 0,23.92784799421858 L 0,5 C 0,2.761423749153968 2.761423749153968,0 5,0 z" fill="#C4BD97" stroke="none" transform="matrix(1, 0, 0, 1, 0.5, 0.5)"></path><path d="M 5,0 L 154.87285360182355,0 C 157.11142985266957,0 159.87285360182355,2.761423749153968 159.87285360182355,5 L 159.87285360182355,23.92784799421858 C 159.87285360182355,26.16642424506461 157.11142985266957,28.92784799421858 154.87285360182355,28.92784799421858 L 5,28.92784799421858 C 2.761423749153968,28.92784799421858 0,26.16642424506461 0,23.92784799421858 L 0,5 C 0,2.761423749153968 2.761423749153968,0 5,0 z" fill="none" stroke="black" stroke-width="1" stroke-linecap="butt" stroke-linejoin="miter" stroke-miterlimit="10" transform="matrix(1, 0, 0, 1, 0.5, 0.5)"></path><text x="0" y="11.553750371932985" style="font: bold 12px sans-serif" text-anchor="start" fill="blue" stroke="none" transform="matrix(1, 0, 0, 1, 7.261423749153954, 7.261423749153966)">ham入力ファイル作成_01</text></g><g transform="matrix(1, 0, 0, 1, -200, 100)"><path d="M 0,0 L 226.81666564941406,0 L 226.81666564941406,23.55375037193298 L 113.40833282470703,31.40500049591064 L 0,23.55375037193298 z" fill="#88CCFF" stroke="none" transform="matrix(1, 0, 0, 1, 0.5, 0.5)"></path><path d="M 0,0 L 226.81666564941406,0 L 226.81666564941406,23.55375037193298 L 113.40833282470703,31.40500049591064 L 0,23.55375037193298 z" fill="none" stroke="black" stroke-width="1" stroke-linecap="butt" stroke-linejoin="miter" stroke-miterlimit="10" transform="matrix(1, 0, 0, 1, 0.5, 0.5)"></path><text x="0" y="11.553750371932985" style="font: bold 12px sans-serif" text-anchor="start" fill="black" stroke="none" transform="matrix(1, 0, 0, 1, 8.5, 8.499999999999998)">fistr_材料パラメータ入力ファイル_01</text></g><g transform="matrix(1, 0, 0, 1, -200, 150)"><path d="M 0,0 L 191.4166717529297,0 L 191.4166717529297,23.55375037193298 L 95.70833587646484,31.40500049591064 L 0,23.55375037193298 z" fill="#88CCFF" stroke="none" transform="matrix(1, 0, 0, 1, 0.5, 0.5)"></path><path d="M 0,0 L 191.4166717529297,0 L 191.4166717529297,23.55375037193298 L 95.70833587646484,31.40500049591064 L 0,23.55375037193298 z" fill="none" stroke="black" stroke-width="1" stroke-linecap="butt" stroke-linejoin="miter" stroke-miterlimit="10" transform="matrix(1, 0, 0, 1, 0.5, 0.5)"></path><text x="0" y="11.553750371932985" style="font: bold 12px sans-serif" text-anchor="start" fill="black" stroke="none" transform="matrix(1, 0, 0, 1, 8.5, 8.499999999999998)">fistr_計算条件入力ファイル_01</text></g><g transform="matrix(1, 0, 0, 1, -200, -200)"><path d="M 0,0 L 169.9499969482422,0 L 169.9499969482422,23.55375037193298 L 84.9749984741211,31.40500049591064 L 0,23.55375037193298 z" fill="#88CCFF" stroke="none" transform="matrix(1, 0, 0, 1, 0.5, 0.5)"></path><path d="M 0,0 L 169.9499969482422,0 L 169.9499969482422,23.55375037193298 L 84.9749984741211,31.40500049591064 L 0,23.55375037193298 z" fill="none" stroke="black" stroke-width="1" stroke-linecap="butt" stroke-linejoin="miter" stroke-miterlimit="10" transform="matrix(1, 0, 0, 1, 0.5, 0.5)"></path><text x="0" y="11.553750371932985" style="font: bold 12px sans-serif" text-anchor="start" fill="black" stroke="none" transform="matrix(1, 0, 0, 1, 8.5, 8.499999999999998)">プロジェクトプロパティ_01</text></g><g transform="matrix(1, 0, 0, 1, 10, 290)"><path d="M 106.29166412353516,0 L 212.5833282470703,7.85125012397766 L 212.5833282470703,31.40500049591064 L 0,31.40500049591064 L 0,7.85125012397766 z" fill="#DDDDDD" stroke="none" transform="matrix(1, 0, 0, 1, 0.5, 0.5)"></path><path d="M 106.29166412353516,0 L 212.5833282470703,7.85125012397766 L 212.5833282470703,31.40500049591064 L 0,31.40500049591064 L 0,7.85125012397766 z" fill="none" stroke="black" stroke-width="1" stroke-linecap="butt" stroke-linejoin="miter" stroke-miterlimit="10" transform="matrix(1, 0, 0, 1, 0.5, 0.5)"></path><text x="0" y="11.553750371932985" style="font: bold 12px sans-serif" text-anchor="start" fill="black" stroke="none" transform="matrix(1, 0, 0, 1, 8.5, 8.499999999999998)">クリープ破断時間_huddleston_01</text></g><g transform="matrix(1, 0, 0, 1, 160, 10)"><path d="M 5,0 L 185.37285360182355,0 C 187.61142985266957,0 190.37285360182355,2.761423749153968 190.37285360182355,5 L 190.37285360182355,23.92784799421858 C 190.37285360182355,26.16642424506461 187.61142985266957,28.92784799421858 185.37285360182355,28.92784799421858 L 5,28.92784799421858 C 2.761423749153968,28.92784799421858 0,26.16642424506461 0,23.92784799421858 L 0,5 C 0,2.761423749153968 2.761423749153968,0 5,0 z" fill="#C4BD97" stroke="none" transform="matrix(1, 0, 0, 1, 0.5, 0.5)"></path><path d="M 5,0 L 185.37285360182355,0 C 187.61142985266957,0 190.37285360182355,2.761423749153968 190.37285360182355,5 L 190.37285360182355,23.92784799421858 C 190.37285360182355,26.16642424506461 187.61142985266957,28.92784799421858 185.37285360182355,28.92784799421858 L 5,28.92784799421858 C 2.761423749153968,28.92784799421858 0,26.16642424506461 0,23.92784799421858 L 0,5 C 0,2.761423749153968 2.761423749153968,0 5,0 z" fill="none" stroke="black" stroke-width="1" stroke-linecap="butt" stroke-linejoin="miter" stroke-miterlimit="10" transform="matrix(1, 0, 0, 1, 0.5, 0.5)"></path><text x="0" y="11.553750371932985" style="font: bold 12px sans-serif" text-anchor="start" fill="blue" stroke="none" transform="matrix(1, 0, 0, 1, 7.261423749153954, 7.261423749153966)">WFAS7_code_aster_更新_01</text></g><g transform="matrix(1, 0, 0, 1, -200, -100)"><path d="M 0,0 L 166.9499969482422,0 L 166.9499969482422,23.55375037193298 L 83.4749984741211,31.40500049591064 L 0,23.55375037193298 z" fill="#88CCFF" stroke="none" transform="matrix(1, 0, 0, 1, 0.5, 0.5)"></path><path d="M 0,0 L 166.9499969482422,0 L 166.9499969482422,23.55375037193298 L 83.4749984741211,31.40500049591064 L 0,23.55375037193298 z" fill="none" stroke="black" stroke-width="1" stroke-linecap="butt" stroke-linejoin="miter" stroke-miterlimit="10" transform="matrix(1, 0, 0, 1, 0.5, 0.5)"></path><text x="0" y="11.553750371932985" style="font: bold 12px sans-serif" text-anchor="start" fill="black" stroke="none" transform="matrix(1, 0, 0, 1, 8.5, 8.499999999999998)">Haysデフォルトデータ_01</text></g><g transform="matrix(1, 0, 0, 1, -200, 0)"><path d="M 0,0 L 147.14999389648438,0 L 147.14999389648438,23.55375037193298 L 73.57499694824219,31.40500049591064 L 0,23.55375037193298 z" fill="#88CCFF" stroke="none" transform="matrix(1, 0, 0, 1, 0.5, 0.5)"></path><path d="M 0,0 L 147.14999389648438,0 L 147.14999389648438,23.55375037193298 L 73.57499694824219,31.40500049591064 L 0,23.55375037193298 z" fill="none" stroke="black" stroke-width="1" stroke-linecap="butt" stroke-linejoin="miter" stroke-miterlimit="10" transform="matrix(1, 0, 0, 1, 0.5, 0.5)"></path><text x="0" y="11.553750371932985" style="font: bold 12px sans-serif" text-anchor="start" fill="black" stroke="none" transform="matrix(1, 0, 0, 1, 8.5, 8.499999999999998)">溶接溶解状態データ_01</text></g><g transform="matrix(1, 0, 0, 1, -200, 50)"><path d="M 0,0 L 134.5500030517578,0 L 134.5500030517578,23.55375037193298 L 67.2750015258789,31.40500049591064 L 0,23.55375037193298 z" fill="#88CCFF" stroke="none" transform="matrix(1, 0, 0, 1, 0.5, 0.5)"></path><path d="M 0,0 L 134.5500030517578,0 L 134.5500030517578,23.55375037193298 L 67.2750015258789,31.40500049591064 L 0,23.55375037193298 z" fill="none" stroke="black" stroke-width="1" stroke-linecap="butt" stroke-linejoin="miter" stroke-miterlimit="10" transform="matrix(1, 0, 0, 1, 0.5, 0.5)"></path><text x="0" y="11.553750371932985" style="font: bold 12px sans-serif" text-anchor="start" fill="black" stroke="none" transform="matrix(1, 0, 0, 1, 8.5, 8.499999999999998)">解析モデル指定子_01</text></g><g transform="matrix(1, 0, 0, 1, 190, -110)"><path d="M 5,0 L 156.1395161994798,0 C 158.37809245032582,0 161.1395161994798,2.761423749153968 161.1395161994798,5 L 161.1395161994798,23.92784799421858 C 161.1395161994798,26.16642424506461 158.37809245032582,28.92784799421858 156.1395161994798,28.92784799421858 L 5,28.92784799421858 C 2.761423749153968,28.92784799421858 0,26.16642424506461 0,23.92784799421858 L 0,5 C 0,2.761423749153968 2.761423749153968,0 5,0 z" fill="#C4BD97" stroke="none" transform="matrix(1, 0, 0, 1, 0.5, 0.5)"></path><path d="M 5,0 L 156.1395161994798,0 C 158.37809245032582,0 161.1395161994798,2.761423749153968 161.1395161994798,5 L 161.1395161994798,23.92784799421858 C 161.1395161994798,26.16642424506461 158.37809245032582,28.92784799421858 156.1395161994798,28.92784799421858 L 5,28.92784799421858 C 2.761423749153968,28.92784799421858 0,26.16642424506461 0,23.92784799421858 L 0,5 C 0,2.761423749153968 2.761423749153968,0 5,0 z" fill="none" stroke="black" stroke-width="1" stroke-linecap="butt" stroke-linejoin="miter" stroke-miterlimit="10" transform="matrix(1, 0, 0, 1, 0.5, 0.5)"></path><text x="0" y="11.553750371932985" style="font: bold 12px sans-serif" text-anchor="start" fill="blue" stroke="none" transform="matrix(1, 0, 0, 1, 7.261423749153954, 7.261423749153966)">WFAS7_メッシュ作成_01</text></g><g transform="matrix(1, 0, 0, 1, -200, -150)"><path d="M 0,0 L 171.14999389648438,0 L 171.14999389648438,23.55375037193298 L 85.57499694824219,31.40500049591064 L 0,23.55375037193298 z" fill="#88CCFF" stroke="none" transform="matrix(1, 0, 0, 1, 0.5, 0.5)"></path><path d="M 0,0 L 171.14999389648438,0 L 171.14999389648438,23.55375037193298 L 85.57499694824219,31.40500049591064 L 0,23.55375037193298 z" fill="none" stroke="black" stroke-width="1" stroke-linecap="butt" stroke-linejoin="miter" stroke-miterlimit="10" transform="matrix(1, 0, 0, 1, 0.5, 0.5)"></path><text x="0" y="11.553750371932985" style="font: bold 12px sans-serif" text-anchor="start" fill="black" stroke="none" transform="matrix(1, 0, 0, 1, 8.5, 8.499999999999998)">溶接複数レイヤーデータ_01</text></g><g transform="matrix(1, 0, 0, 1, -200, -250)"><path d="M 0,0 L 122.55000305175781,0 L 122.55000305175781,23.55375037193298 L 61.275001525878906,31.40500049591064 L 0,23.55375037193298 z" fill="#88CCFF" stroke="none" transform="matrix(1, 0, 0, 1, 0.5, 0.5)"></path><path d="M 0,0 L 122.55000305175781,0 L 122.55000305175781,23.55375037193298 L 61.275001525878906,31.40500049591064 L 0,23.55375037193298 z" fill="none" stroke="black" stroke-width="1" stroke-linecap="butt" stroke-linejoin="miter" stroke-miterlimit="10" transform="matrix(1, 0, 0, 1, 0.5, 0.5)"></path><text x="0" y="11.553750371932985" style="font: bold 12px sans-serif" text-anchor="start" fill="black" stroke="none" transform="matrix(1, 0, 0, 1, 8.5, 8.499999999999998)">溶接パラメータ_01</text></g><g transform="matrix(1, 0, 0, 1, 270, 100)"><path d="M 5,0 L 155.53951009596418,0 C 157.7780863468102,0 160.53951009596418,2.761423749153968 160.53951009596418,5 L 160.53951009596418,23.92784799421858 C 160.53951009596418,26.16642424506461 157.7780863468102,28.92784799421858 155.53951009596418,28.92784799421858 L 5,28.92784799421858 C 2.761423749153968,28.92784799421858 0,26.16642424506461 0,23.92784799421858 L 0,5 C 0,2.761423749153968 2.761423749153968,0 5,0 z" fill="#C4BD97" stroke="none" transform="matrix(1, 0, 0, 1, 0.5, 0.5)"></path><path d="M 5,0 L 155.53951009596418,0 C 157.7780863468102,0 160.53951009596418,2.761423749153968 160.53951009596418,5 L 160.53951009596418,23.92784799421858 C 160.53951009596418,26.16642424506461 157.7780863468102,28.92784799421858 155.53951009596418,28.92784799421858 L 5,28.92784799421858 C 2.761423749153968,28.92784799421858 0,26.16642424506461 0,23.92784799421858 L 0,5 C 0,2.761423749153968 2.761423749153968,0 5,0 z" fill="none" stroke="black" stroke-width="1" stroke-linecap="butt" stroke-linejoin="miter" stroke-miterlimit="10" transform="matrix(1, 0, 0, 1, 0.5, 0.5)"></path><text x="0" y="11.553750371932985" style="font: bold 12px sans-serif" text-anchor="start" fill="blue" stroke="none" transform="matrix(1, 0, 0, 1, 7.261423749153954, 7.261423749153966)">WFAS7_HazUpdate_01</text></g><g transform="matrix(1, 0, 0, 1, -20, 230)"><path d="M 5,0 L 254.63951619947983,0 C 256.8780924503259,0 259.63951619947983,2.761423749153968 259.63951619947983,5 L 259.63951619947983,23.92784799421858 C 259.63951619947983,26.16642424506461 256.8780924503259,28.92784799421858 254.63951619947983,28.92784799421858 L 5,28.92784799421858 C 2.761423749153968,28.92784799421858 0,26.16642424506461 0,23.92784799421858 L 0,5 C 0,2.761423749153968 2.761423749153968,0 5,0 z" fill="#C4BD97" stroke="none" transform="matrix(1, 0, 0, 1, 0.5, 0.5)"></path><path d="M 5,0 L 254.63951619947983,0 C 256.8780924503259,0 259.63951619947983,2.761423749153968 259.63951619947983,5 L 259.63951619947983,23.92784799421858 C 259.63951619947983,26.16642424506461 256.8780924503259,28.92784799421858 254.63951619947983,28.92784799421858 L 5,28.92784799421858 C 2.761423749153968,28.92784799421858 0,26.16642424506461 0,23.92784799421858 L 0,5 C 0,2.761423749153968 2.761423749153968,0 5,0 z" fill="none" stroke="black" stroke-width="1" stroke-linecap="butt" stroke-linejoin="miter" stroke-miterlimit="10" transform="matrix(1, 0, 0, 1, 0.5, 0.5)"></path><text x="0" y="11.553750371932985" style="font: bold 12px sans-serif" text-anchor="start" fill="blue" stroke="none" transform="matrix(1, 0, 0, 1, 7.261423749153982, 7.261423749153966)">FrontISTR_実行_検証版_外部計算_DPF_01</text></g><g transform="matrix(1, 0, 0, 1, 211.69261937456466, 37.43312003012147)"><path d="M 36.71396091381317,0 C 35.857989527212595,48.13709590661435 23.423214165457722,91.92204315075622 0,131.38690931923864" fill="none" stroke="#2F2F2F" stroke-width="2.5" stroke-linecap="butt" stroke-linejoin="miter" stroke-miterlimit="10" transform="matrix(1, 0, 0, 1, 8.239471711517918, 1.25)"></path><path d="M 0,0 L 8,4 L 0,8 L 2,4 z" fill="#2F4F4F" stroke="none" transform="matrix(-1.020785890093035, 1.719882602559538, -1.719882602559538, -1.020785890093035, 23.29568218754687, 121.60105075785471)"></path></g><g transform="matrix(1, 0, 0, 1, -96.38941174565673, -72.1377809952985)"><path d="M 0,0 C 104.13154081317106,68.2422754176182 201.82351643983597,148.47408023577074 292.6656331418077,241.03093755421895" fill="none" stroke="#2F2F2F" stroke-width="2.5" stroke-linecap="butt" stroke-linejoin="miter" stroke-miterlimit="10" transform="matrix(1, 0, 0, 1, 1.25, 1.25)"></path><path d="M 0,0 L 8,4 L 0,8 L 2,4 z" fill="#2F4F4F" stroke="none" transform="matrix(1.400929740185515, 1.4273737643181428, -1.4273737643181428, 1.400929740185515, 287.21722540750335, 224.04454159677266)"></path></g><g transform="matrix(1, 0, 0, 1, -93.44867929756553, 26.261222306000022)"><path d="M 0,0 C 93.92933208865966,33.83713938565626 188.34419013055714,81.14869852343283 282.1518503152114,142.71443558166862" fill="none" stroke="#2F2F2F" stroke-width="2.5" stroke-linecap="butt" stroke-linejoin="miter" stroke-miterlimit="10" transform="matrix(1, 0, 0, 1, 1.25, 1.25)"></path><path d="M 0,0 L 8,4 L 0,8 L 2,4 z" fill="#2F4F4F" stroke="none" transform="matrix(1.6720593549348337, 1.097368449325434, -1.097368449325434, 1.6720593549348337, 273.07881959556704, 127.4485663426631)"></path></g><g transform="matrix(1, 0, 0, 1, -85.69448301101005, 74.38559037707981)"><path d="M 0,0 C 81.46082801876204,17.475030071921196 171.09079005349633,48.52871631805297 266.746488522593,94.6472644754557" fill="none" stroke="#2F2F2F" stroke-width="2.5" stroke-linecap="butt" stroke-linejoin="miter" stroke-miterlimit="10" transform="matrix(1, 0, 0, 1, 1.25, 1.25)"></path><path d="M 0,0 L 8,4 L 0,8 L 2,4 z" fill="#2F4F4F" stroke="none" transform="matrix(1.8015459358345707, 0.8685805898579251, -0.8685805898579251, 1.8015459358345707, 255.65767042743082, 80.80814571832506)"></path></g><g transform="matrix(1, 0, 0, 1, 261.5548394205063, -22.61374411499711)"><path d="M 2.647349702757367,0 C 8.529420049056625,12.599034327105814 7.137172358456155,23.04089200660896 0,31.48193394981303" fill="none" stroke="#2F2F2F" stroke-width="2.5" stroke-linecap="butt" stroke-linejoin="miter" stroke-miterlimit="10" transform="matrix(1, 0, 0, 1, 7.372582973313435, 1.25)"></path><path d="M 0,0 L 8,4 L 0,8 L 2,4 z" fill="#2F4F4F" stroke="none" transform="matrix(-1.291331082330821, 1.5272406607363196, -1.5272406607363196, -1.291331082330821, 23.957859816070695, 24.415712662877596)"></path></g><g transform="matrix(1, 0, 0, 1, 269.0236200615851, -82.61809205979115)"><path d="M 2.2655701817086538,0 C 8.31295359717086,12.301118207879867 7.122867828420169,22.742196264718487 0,31.480534098410985" fill="none" stroke="#2F2F2F" stroke-width="2.5" stroke-linecap="butt" stroke-linejoin="miter" stroke-miterlimit="10" transform="matrix(1, 0, 0, 1, 7.4760433048430635, 1.25)"></path><path d="M 0,0 L 8,4 L 0,8 L 2,4 z" fill="#2F4F4F" stroke="none" transform="matrix(-1.2636380910425045, 1.5502318455206805, -1.5502318455206805, -1.2636380910425045, 23.917894460787075, 24.108115775655218)"></path></g><g transform="matrix(1, 0, 0, 1, -51.887127386785636, -39.270685175656716)"><path d="M 0,42.337083246469 C 80.63712738678564,39.074961965083 137.66801663615598,1.3379588741658353 170.63753859730932,0" fill="none" stroke="#2F2F2F" stroke-width="2.5" stroke-linecap="butt" stroke-linejoin="miter" stroke-miterlimit="10" transform="matrix(1, 0, 0, 1, 1.25, 9.492598210573716)"></path><path d="M 0,0 L 8,4 L 0,8 L 2,4 z" fill="#2F4F4F" stroke="none" transform="matrix(1.9983551579052705, -0.08109662676955974, 0.08109662676955974, 1.9983551579052705, 154.07713324803626, 1.6884989064938924)"></path></g><g transform="matrix(1, 0, 0, 1, -27.886804442395118, -187.2748560836586)"><path d="M 0,0 C 90.63680444239512,-1.678268916341409 94.63680444239512,157.3217310836586 146.63711609181775,155.48488739352507" fill="none" stroke="#2F2F2F" stroke-width="2.5" stroke-linecap="butt" stroke-linejoin="miter" stroke-miterlimit="10" transform="matrix(1, 0, 0, 1, 1.25, 1.25)"></path><path d="M 0,0 L 8,4 L 0,8 L 2,4 z" fill="#2F4F4F" stroke="none" transform="matrix(1.998753402309551, -0.070603376378148, 0.070603376378148, 1.998753402309551, 130.115298666674, 148.8400024835011)"></path></g><g transform="matrix(1, 0, 0, 1, -63.88690164265034, -40.60990522591559)"><path d="M 0,94.83632745189351 C 89.63690164265034,92.41120245470117 137.63690164265034,1.4112024547011615 182.63714732202732,0" fill="none" stroke="#2F2F2F" stroke-width="2.5" stroke-linecap="butt" stroke-linejoin="miter" stroke-miterlimit="10" transform="matrix(1, 0, 0, 1, 1.25, 9.49557777121443)"></path><path d="M 0,0 L 8,4 L 0,8 L 2,4 z" fill="#2F4F4F" stroke="none" transform="matrix(1.9990172824920953, -0.06268894877024449, 0.06268894877024449, 1.9990172824920953, 166.14474462576354, 1.5323647057931256)"></path></g><g transform="matrix(1, 0, 0, 1, -27.887164767589326, -139.33353837372258)"><path d="M 0,0 C 85.63716476758933,-3.6195866262774246 55.637164767589326,112.38041337372258 146.63760940615623,108.54009808462611" fill="none" stroke="#2F2F2F" stroke-width="2.5" stroke-linecap="butt" stroke-linejoin="miter" stroke-miterlimit="10" transform="matrix(1, 0, 0, 1, 1.25, 1.25)"></path><path d="M 0,0 L 8,4 L 0,8 L 2,4 z" fill="#2F4F4F" stroke="none" transform="matrix(1.9982214457323062, -0.08432706454924228, 0.08432706454924228, 1.9982214457323062, 130.06541885923468, 102.01399235036544)"></path></g><g transform="matrix(1, 0, 0, 1, 291.6729408410157, -96.26976852765743)"><path d="M 60.556922647348244,0 C 229.0770591589843,1.3166435276574333 265.0770591589843,291.31664352765745 0,282.17171344997035" fill="none" stroke="#2F2F2F" stroke-width="2.5" stroke-linecap="butt" stroke-linejoin="miter" stroke-miterlimit="10" transform="matrix(1, 0, 0, 1, 1.25, 1.25)"></path><path d="M 0,0 L 8,4 L 0,8 L 2,4 z" fill="#2F4F4F" stroke="none" transform="matrix(-1.9988108708311256, -0.06895725231849804, 0.06895725231849804, -1.9988108708311256, 17.464063392790578, 291.50309357800205)"></path></g><g transform="matrix(1, 0, 0, 1, -40.05786858383789, -177.00742734538179)"><path d="M 0,0 C 69.1972605655914,8.044694474621878 152.8078685838379,87.05430234538179 228.8083539311522,83.70318966262784" fill="none" stroke="#2F2F2F" stroke-width="2.5" stroke-linecap="butt" stroke-linejoin="miter" stroke-miterlimit="10" transform="matrix(1, 0, 0, 1, 1.25, 1.25)"></path><path d="M 0,0 L 8,4 L 0,8 L 2,4 z" fill="#2F4F4F" stroke="none" transform="matrix(1.9980586107427762, -0.08810101041785623, 0.08810101041785623, 1.9980586107427762, 212.22245169816716, 77.20981380820851)"></path></g><g transform="matrix(1, 0, 0, 1, -51.88696198472752, -103.1059751676933)"><path d="M 0,106.8586688261687 C 94.63696198472752,103.9056781579703 164.63696198472752,1.9056781579703 240.63711909529846,0" fill="none" stroke="#2F2F2F" stroke-width="2.5" stroke-linecap="butt" stroke-linejoin="miter" stroke-miterlimit="10" transform="matrix(1, 0, 0, 1, 1.25, 9.497172009723005)"></path><path d="M 0,0 L 8,4 L 0,8 L 2,4 z" fill="#2F4F4F" stroke="none" transform="matrix(1.9993715577162237, -0.05013356356176323, 0.05013356356176323, 1.9993715577162237, 224.1919266004635, 1.4258210691330993)"></path></g><g transform="matrix(1, 0, 0, 1, -63.886842882598785, -101.61309022893987)"><path d="M 0,156.17096700321656 C 78.63684288259878,154.41837887525452 173.63684288259878,3.4183788752545183 252.63731030739405,0" fill="none" stroke="#2F2F2F" stroke-width="2.5" stroke-linecap="butt" stroke-linejoin="miter" stroke-miterlimit="10" transform="matrix(1, 0, 0, 1, 1.25, 9.491586353685346)"></path><path d="M 0,0 L 8,4 L 0,8 L 2,4 z" fill="#2F4F4F" stroke="none" transform="matrix(1.998130300818966, -0.08645982274506872, 0.08645982274506872, 1.998130300818966, 236.05736345945257, 1.7339736437425666)"></path></g><g transform="matrix(1, 0, 0, 1, -75.88733928680075, -239.1772552343361)"><path d="M 0,0.3816801581489244 C 183.63733928680074,-8.775869765663913 188.63733928680074,148.2241302343361 264.6376952428828,145.3548312013736" fill="none" stroke="#2F2F2F" stroke-width="2.5" stroke-linecap="butt" stroke-linejoin="miter" stroke-miterlimit="10" transform="matrix(1, 0, 0, 1, 1.25, 1.25)"></path><path d="M 0,0 L 8,4 L 0,8 L 2,4 z" fill="#2F4F4F" stroke="none" transform="matrix(1.9985761756718217, -0.075453760920156, 0.075453760920156, 1.9985761756718217, 248.0979827059917, 138.75188346650765)"></path></g><g transform="matrix(1, 0, 0, 1, -27.886719859887506, -135.85246481608183)"><path d="M 0,0 C 69.79140653545261,-0.14705241213212616 134.6367198598875,44.899339816081834 216.6370502323692,41.9169608202637" fill="none" stroke="#2F2F2F" stroke-width="2.5" stroke-linecap="butt" stroke-linejoin="miter" stroke-miterlimit="10" transform="matrix(1, 0, 0, 1, 1.25, 1.25)"></path><path d="M 0,0 L 8,4 L 0,8 L 2,4 z" fill="#2F4F4F" stroke="none" transform="matrix(1.9986785100731588, -0.07269259502685657, 0.07269259502685657, 1.9986785100731588, 200.10751251663993, 35.290133837699344)"></path></g><g transform="matrix(1, 0, 0, 1, 284.2621482376581, 37.15374681390436)"><path d="M 0,0 C 18.587615138085653,9.13568511910644 39.9436797658891,29.676877781066466 57.236581780058486,61.65643821110197" fill="none" stroke="#2F2F2F" stroke-width="2.5" stroke-linecap="butt" stroke-linejoin="miter" stroke-miterlimit="10" transform="matrix(1, 0, 0, 1, 1.25, 1.25)"></path><path d="M 0,0 L 8,4 L 0,8 L 2,4 z" fill="#2F4F4F" stroke="none" transform="matrix(0.9513172995069091, 1.759259899974669, -1.759259899974669, 0.9513172995069091, 56.93742433414844, 43.64745986328965)"></path></g><g transform="matrix(1, 0, 0, 1, 291.67313218285756, 127.41870411576602)"><path d="M 61.075227572762685,0 C 71.07686781714244,40.62817088423398 62.07686781714244,58.62817088423398 0,57.35008593238996" fill="none" stroke="#2F2F2F" stroke-width="2.5" stroke-linecap="butt" stroke-linejoin="miter" stroke-miterlimit="10" transform="matrix(1, 0, 0, 1, 1.25, 1.25)"></path><path d="M 0,0 L 8,4 L 0,8 L 2,4 z" fill="#2F4F4F" stroke="none" transform="matrix(-1.9995762381984599, -0.04116877010667342, 0.04116877010667342, -1.9995762381984599, 17.581722944260214, 66.44832543109052)"></path></g><g transform="matrix(1, 0, 0, 1, -89.79219757760032, -172.48380753449374)"><path d="M 0,0 C 145.20324653253647,77.27800807254759 285.4868965341965,167.6451270954565 420.5974750340962,271.42922347946916" fill="none" stroke="#2F2F2F" stroke-width="2.5" stroke-linecap="butt" stroke-linejoin="miter" stroke-miterlimit="10" transform="matrix(1, 0, 0, 1, 1.25, 1.25)"></path><path d="M 0,0 L 8,4 L 0,8 L 2,4 z" fill="#2F4F4F" stroke="none" transform="matrix(1.5860822345630663, 1.218336220098307, -1.218336220098307, 1.5860822345630663, 412.73912092070333, 255.47903667038128)"></path></g><g transform="matrix(1, 0, 0, 1, -63.88675745456476, 65.18480300074182)"><path d="M 0,0 C 112.48921022049349,1.3997393518127126 223.36981067380694,12.621846112916302 338.18591422463675,33.97378111467849" fill="none" stroke="#2F2F2F" stroke-width="2.5" stroke-linecap="butt" stroke-linejoin="miter" stroke-miterlimit="10" transform="matrix(1, 0, 0, 1, 1.25, 1.25)"></path><path d="M 0,0 L 8,4 L 0,8 L 2,4 z" fill="#2F4F4F" stroke="none" transform="matrix(1.96628842664148, 0.36566353831872983, -0.36566353831872983, 1.96628842664148, 323.6851167514591, 23.750487332403367)"></path></g><g transform="matrix(1, 0, 0, 1, 352.2298787386255, -96.92448679991408)"><path d="M 0,0 C 145.52012126137453,-0.028638200085921994 158.52012126137453,213.97136179991406 77.46274080450473,211.98654772886644" fill="none" stroke="#2F2F2F" stroke-width="2.5" stroke-linecap="butt" stroke-linejoin="miter" stroke-miterlimit="10" transform="matrix(1, 0, 0, 1, 1.25, 1.25)"></path><path d="M 0,0 L 8,4 L 0,8 L 2,4 z" fill="#2F4F4F" stroke="none" transform="matrix(-1.9994006792891699, -0.04895838700372174, 0.04895838700372174, -1.9994006792891699, 95.01181303044778, 221.15029673555475)"></path></g><g transform="matrix(1, 0, 0, 1, -42.82715137580274, 175.67670721256385)"><path d="M 0,0 C 24.99839426828415,4.309090308285562 71.31495662754925,21.346753954170453 126.50134383322538,53.322622861565236" fill="none" stroke="#2F2F2F" stroke-width="2.5" stroke-linecap="butt" stroke-linejoin="miter" stroke-miterlimit="10" transform="matrix(1, 0, 0, 1, 1.25, 1.25)"></path><path d="M 0,0 L 8,4 L 0,8 L 2,4 z" fill="#2F4F4F" stroke="none" transform="matrix(1.7305009136726455, 1.0026797034836892, -1.0026797034836892, 1.7305009136726455, 116.55280488094266, 38.62784172726329)"></path></g><g transform="matrix(1, 0, 0, 1, -54.83296465887324, 128.63023788398672)"><path d="M 0,0 C 48.96199031325703,20.600307173268106 99.5777854524949,53.78250030280515 148.3633906819303,100.27481846560826" fill="none" stroke="#2F2F2F" stroke-width="2.5" stroke-linecap="butt" stroke-linejoin="miter" stroke-miterlimit="10" transform="matrix(1, 0, 0, 1, 1.25, 1.25)"></path><path d="M 0,0 L 8,4 L 0,8 L 2,4 z" fill="#2F4F4F" stroke="none" transform="matrix(1.4478335707960843, 1.3797746016200834, -1.3797746016200834, 1.4478335707960843, 142.3259037366439, 83.50540006865323)"></path></g><g transform="matrix(1, 0, 0, 1, 155.1646250166793, 198.5563953320168)"><path d="M 28.179437041583924,0 C 7.651970411675023,23.788630910280204 -9.34455683255041,33.974663345072884 5.750217175266727,30.584023432920816" fill="none" stroke="#2F2F2F" stroke-width="2.5" stroke-linecap="butt" stroke-linejoin="miter" stroke-miterlimit="10" transform="matrix(1, 0, 0, 1, 14.284635866539617, 1.25)"></path><path d="M 0,0 L 8,4 L 0,8 L 2,4 z" fill="#2F4F4F" stroke="none" transform="matrix(1.9513767567425846, -0.43832494024957336, 0.43832494024957336, 1.9513767567425846, 1.1948508484960794, 27.254278398071854)"></path></g><g transform="matrix(1, 0, 0, 1, -105.83535461156914, -169.8194195400278)"><path d="M 0,0 C 81.9634786971462,125.57251166127097 151.6106278739863,258.38419422329224 208.81555797436457,398.60646263171077" fill="none" stroke="#2F2F2F" stroke-width="2.5" stroke-linecap="butt" stroke-linejoin="miter" stroke-miterlimit="10" transform="matrix(1, 0, 0, 1, 1.25, 1.25)"></path><path d="M 0,0 L 8,4 L 0,8 L 2,4 z" fill="#2F4F4F" stroke="none" transform="matrix(0.7554696662766244, 1.8518276332682493, -1.8518276332682493, 0.7554696662766244, 210.55137634408626, 380.5940490838242)"></path></g><g transform="matrix(1, 0, 0, 1, 115.53745151873927, 258.56926536101497)"><path d="M 0,0 C 6.748748309474848,8.490682330357572 7.812604731978382,18.557122172021195 2.047356530917199,30.758236922724507" fill="none" stroke="#2F2F2F" stroke-width="2.5" stroke-linecap="butt" stroke-linejoin="miter" stroke-miterlimit="10" transform="matrix(1, 0, 0, 1, 6.589951245538101, 1.25)"></path><path d="M 0,0 L 8,4 L 0,8 L 2,4 z" fill="#2F4F4F" stroke="none" transform="matrix(-0.8544501416148764, 1.8082906169900672, -1.8082906169900672, -0.8544501416148764, 22.63329644814202, 19.55556724476844)"></path></g></g></g><clipPath id="mainClip2379"><rect x="0" y="0" width="690" height="575"></rect></clipPath></svg>