<svg width="939px" height="505px" CL="0 0 939 505" xmlns="http://www.w3.org/2000/svg" xmlns:xlink="http://www.w3.org/1999/xlink"><g transform="matrix(1, 0, 0, 1, 0, 0)" clip-path="url(#mainClip2326)"><g transform="matrix(1, 0, 0, 1, -9, 31)"><g transform="matrix(1, 0, 0, 1, 250, 100)"><path d="M 5,0 L 311.42284139479233,0 C 313.6614176456384,0 316.42284139479233,2.761423749153968 316.42284139479233,5 L 316.42284139479233,23.92784799421858 C 316.42284139479233,26.16642424506461 313.6614176456384,28.92784799421858 311.42284139479233,28.92784799421858 L 5,28.92784799421858 C 2.761423749153968,28.92784799421858 0,26.16642424506461 0,23.92784799421858 L 0,5 C 0,2.761423749153968 2.761423749153968,0 5,0 z" fill="#FFFF00" stroke="none" transform="matrix(1, 0, 0, 1, 0.5, 0.5)"></path><path d="M 5,0 L 311.42284139479233,0 C 313.6614176456384,0 316.42284139479233,2.761423749153968 316.42284139479233,5 L 316.42284139479233,23.92784799421858 C 316.42284139479233,26.16642424506461 313.6614176456384,28.92784799421858 311.42284139479233,28.92784799421858 L 5,28.92784799421858 C 2.761423749153968,28.92784799421858 0,26.16642424506461 0,23.92784799421858 L 0,5 C 0,2.761423749153968 2.761423749153968,0 5,0 z" fill="none" stroke="black" stroke-width="1" stroke-linecap="butt" stroke-linejoin="miter" stroke-miterlimit="10" transform="matrix(1, 0, 0, 1, 0.5, 0.5)"></path><text x="0" y="11.553750371932985" style="font: bold 12px sans-serif" text-anchor="start" fill="blue" stroke="none" transform="matrix(1, 0, 0, 1, 7.261423749153996, 7.261423749153966)">WFAS6_code_aster_実行_外部計算機資源利用版_02</text></g><g transform="matrix(1, 0, 0, 1, 46.72500228881836, 3.797499752044672)"><path d="M 0,0 L 121.0999984741211,0 L 121.0999984741211,23.55375037193298 L 60.54999923706055,31.40500049591064 L 0,23.55375037193298 z" fill="#88CCFF" stroke="none" transform="matrix(1, 0, 0, 1, 0.5, 0.5)"></path><path d="M 0,0 L 121.0999984741211,0 L 121.0999984741211,23.55375037193298 L 60.54999923706055,31.40500049591064 L 0,23.55375037193298 z" fill="none" stroke="black" stroke-width="1" stroke-linecap="butt" stroke-linejoin="miter" stroke-miterlimit="10" transform="matrix(1, 0, 0, 1, 0.5, 0.5)"></path><text x="0" y="11.553750371932985" style="font: bold 12px sans-serif" text-anchor="start" fill="black" stroke="none" transform="matrix(1, 0, 0, 1, 8.5, 8.499999999999998)">グループリスト_01</text></g><g transform="matrix(1, 0, 0, 1, 22.300003051757812, 53.79749975204467)"><path d="M 0,0 L 169.9499969482422,0 L 169.9499969482422,23.55375037193298 L 84.9749984741211,31.40500049591064 L 0,23.55375037193298 z" fill="#88CCFF" stroke="none" transform="matrix(1, 0, 0, 1, 0.5, 0.5)"></path><path d="M 0,0 L 169.9499969482422,0 L 169.9499969482422,23.55375037193298 L 84.9749984741211,31.40500049591064 L 0,23.55375037193298 z" fill="none" stroke="black" stroke-width="1" stroke-linecap="butt" stroke-linejoin="miter" stroke-miterlimit="10" transform="matrix(1, 0, 0, 1, 0.5, 0.5)"></path><text x="0" y="11.553750371932985" style="font: bold 12px sans-serif" text-anchor="start" fill="black" stroke="none" transform="matrix(1, 0, 0, 1, 8.5, 8.499999999999998)">プロジェクトプロパティ_01</text></g><g transform="matrix(1, 0, 0, 1, 10, 103.79749975204467)"><path d="M 0,0 L 194.5500030517578,0 L 194.5500030517578,23.55375037193298 L 97.2750015258789,31.40500049591064 L 0,23.55375037193298 z" fill="#88CCFF" stroke="none" transform="matrix(1, 0, 0, 1, 0.5, 0.5)"></path><path d="M 0,0 L 194.5500030517578,0 L 194.5500030517578,23.55375037193298 L 97.2750015258789,31.40500049591064 L 0,23.55375037193298 z" fill="none" stroke="black" stroke-width="1" stroke-linecap="butt" stroke-linejoin="miter" stroke-miterlimit="10" transform="matrix(1, 0, 0, 1, 0.5, 0.5)"></path><text x="0" y="11.553750371932985" style="font: bold 12px sans-serif" text-anchor="start" fill="black" stroke="none" transform="matrix(1, 0, 0, 1, 8.5, 8.499999999999998)">二次元メッシュ入力ファイル_01</text></g><g transform="matrix(1, 0, 0, 1, 10.300003051757812, 153.79749975204467)"><path d="M 0,0 L 193.9499969482422,0 L 193.9499969482422,23.55375037193298 L 96.9749984741211,31.40500049591064 L 0,23.55375037193298 z" fill="#88CCFF" stroke="none" transform="matrix(1, 0, 0, 1, 0.5, 0.5)"></path><path d="M 0,0 L 193.9499969482422,0 L 193.9499969482422,23.55375037193298 L 96.9749984741211,31.40500049591064 L 0,23.55375037193298 z" fill="none" stroke="black" stroke-width="1" stroke-linecap="butt" stroke-linejoin="miter" stroke-miterlimit="10" transform="matrix(1, 0, 0, 1, 0.5, 0.5)"></path><text x="0" y="11.553750371932985" style="font: bold 12px sans-serif" text-anchor="start" fill="black" stroke="none" transform="matrix(1, 0, 0, 1, 8.5, 8.499999999999998)">溶接パラメータ入力ファイル_01</text></g><g transform="matrix(1, 0, 0, 1, 33.70000457763672, 203.79749975204467)"><path d="M 0,0 L 147.14999389648438,0 L 147.14999389648438,23.55375037193298 L 73.57499694824219,31.40500049591064 L 0,23.55375037193298 z" fill="#88CCFF" stroke="none" transform="matrix(1, 0, 0, 1, 0.5, 0.5)"></path><path d="M 0,0 L 147.14999389648438,0 L 147.14999389648438,23.55375037193298 L 73.57499694824219,31.40500049591064 L 0,23.55375037193298 z" fill="none" stroke="black" stroke-width="1" stroke-linecap="butt" stroke-linejoin="miter" stroke-miterlimit="10" transform="matrix(1, 0, 0, 1, 0.5, 0.5)"></path><text x="0" y="11.553750371932985" style="font: bold 12px sans-serif" text-anchor="start" fill="black" stroke="none" transform="matrix(1, 0, 0, 1, 8.5, 8.499999999999998)">溶接溶解状態データ_01</text></g><g transform="matrix(1, 0, 0, 1, 21.70000457763672, 253.79749975204467)"><path d="M 0,0 L 171.14999389648438,0 L 171.14999389648438,23.55375037193298 L 85.57499694824219,31.40500049591064 L 0,23.55375037193298 z" fill="#88CCFF" stroke="none" transform="matrix(1, 0, 0, 1, 0.5, 0.5)"></path><path d="M 0,0 L 171.14999389648438,0 L 171.14999389648438,23.55375037193298 L 85.57499694824219,31.40500049591064 L 0,23.55375037193298 z" fill="none" stroke="black" stroke-width="1" stroke-linecap="butt" stroke-linejoin="miter" stroke-miterlimit="10" transform="matrix(1, 0, 0, 1, 0.5, 0.5)"></path><text x="0" y="11.553750371932985" style="font: bold 12px sans-serif" text-anchor="start" fill="black" stroke="none" transform="matrix(1, 0, 0, 1, 8.5, 8.499999999999998)">溶接複数レイヤーデータ_01</text></g><g transform="matrix(1, 0, 0, 1, 63.70000076293945, 303.7974997520447)"><path d="M 0,0 L 87.1500015258789,0 L 87.1500015258789,23.55375037193298 L 43.57500076293945,31.40500049591064 L 0,23.55375037193298 z" fill="#88CCFF" stroke="none" transform="matrix(1, 0, 0, 1, 0.5, 0.5)"></path><path d="M 0,0 L 87.1500015258789,0 L 87.1500015258789,23.55375037193298 L 43.57500076293945,31.40500049591064 L 0,23.55375037193298 z" fill="none" stroke="black" stroke-width="1" stroke-linecap="butt" stroke-linejoin="miter" stroke-miterlimit="10" transform="matrix(1, 0, 0, 1, 0.5, 0.5)"></path><text x="0" y="11.553750371932985" style="font: bold 12px sans-serif" text-anchor="start" fill="black" stroke="none" transform="matrix(1, 0, 0, 1, 8.5, 8.499999999999998)">熱源情報_01</text></g><g transform="matrix(1, 0, 0, 1, 28, 353.7974997520447)"><path d="M 0,0 L 158.5500030517578,0 L 158.5500030517578,23.55375037193298 L 79.2750015258789,31.40500049591064 L 0,23.55375037193298 z" fill="#88CCFF" stroke="none" transform="matrix(1, 0, 0, 1, 0.5, 0.5)"></path><path d="M 0,0 L 158.5500030517578,0 L 158.5500030517578,23.55375037193298 L 79.2750015258789,31.40500049591064 L 0,23.55375037193298 z" fill="none" stroke="black" stroke-width="1" stroke-linecap="butt" stroke-linejoin="miter" stroke-miterlimit="10" transform="matrix(1, 0, 0, 1, 0.5, 0.5)"></path><text x="0" y="11.553750371932985" style="font: bold 12px sans-serif" text-anchor="start" fill="black" stroke="none" transform="matrix(1, 0, 0, 1, 8.5, 8.499999999999998)">複数パス入力ファイル_01</text></g><g transform="matrix(1, 0, 0, 1, 40, 403.7974997520447)"><path d="M 0,0 L 134.5500030517578,0 L 134.5500030517578,23.55375037193298 L 67.2750015258789,31.40500049591064 L 0,23.55375037193298 z" fill="#88CCFF" stroke="none" transform="matrix(1, 0, 0, 1, 0.5, 0.5)"></path><path d="M 0,0 L 134.5500030517578,0 L 134.5500030517578,23.55375037193298 L 67.2750015258789,31.40500049591064 L 0,23.55375037193298 z" fill="none" stroke="black" stroke-width="1" stroke-linecap="butt" stroke-linejoin="miter" stroke-miterlimit="10" transform="matrix(1, 0, 0, 1, 0.5, 0.5)"></path><text x="0" y="11.553750371932985" style="font: bold 12px sans-serif" text-anchor="start" fill="black" stroke="none" transform="matrix(1, 0, 0, 1, 8.5, 8.499999999999998)">解析モデル指定子_01</text></g><g transform="matrix(1, 0, 0, 1, 650, -30)"><path d="M 118.39167022705078,0 L 236.78334045410156,7.85125012397766 L 236.78334045410156,31.40500049591064 L 0,31.40500049591064 L 0,7.85125012397766 z" fill="#DDDDDD" stroke="none" transform="matrix(1, 0, 0, 1, 0.5, 0.5)"></path><path d="M 118.39167022705078,0 L 236.78334045410156,7.85125012397766 L 236.78334045410156,31.40500049591064 L 0,31.40500049591064 L 0,7.85125012397766 z" fill="none" stroke="black" stroke-width="1" stroke-linecap="butt" stroke-linejoin="miter" stroke-miterlimit="10" transform="matrix(1, 0, 0, 1, 0.5, 0.5)"></path><text x="0" y="11.553750371932985" style="font: bold 12px sans-serif" text-anchor="start" fill="black" stroke="none" transform="matrix(1, 0, 0, 1, 8.5, 8.499999999999998)">code_aster_出力_baseアーカイブ_01</text></g><g transform="matrix(1, 0, 0, 1, 660, 20)"><path d="M 111.29166412353516,0 L 222.5833282470703,7.85125012397766 L 222.5833282470703,31.40500049591064 L 0,31.40500049591064 L 0,7.85125012397766 z" fill="#DDDDDD" stroke="none" transform="matrix(1, 0, 0, 1, 0.5, 0.5)"></path><path d="M 111.29166412353516,0 L 222.5833282470703,7.85125012397766 L 222.5833282470703,31.40500049591064 L 0,31.40500049591064 L 0,7.85125012397766 z" fill="none" stroke="black" stroke-width="1" stroke-linecap="butt" stroke-linejoin="miter" stroke-miterlimit="10" transform="matrix(1, 0, 0, 1, 0.5, 0.5)"></path><text x="0" y="11.553750371932985" style="font: bold 12px sans-serif" text-anchor="start" fill="black" stroke="none" transform="matrix(1, 0, 0, 1, 8.5, 8.499999999999998)">code_aster_出力_resuファイル_01</text></g><g transform="matrix(1, 0, 0, 1, 640, 70)"><path d="M 126.375,0 L 252.75,7.85125012397766 L 252.75,31.40500049591064 L 0,31.40500049591064 L 0,7.85125012397766 z" fill="#DDDDDD" stroke="none" transform="matrix(1, 0, 0, 1, 0.5, 0.5)"></path><path d="M 126.375,0 L 252.75,7.85125012397766 L 252.75,31.40500049591064 L 0,31.40500049591064 L 0,7.85125012397766 z" fill="none" stroke="black" stroke-width="1" stroke-linecap="butt" stroke-linejoin="miter" stroke-miterlimit="10" transform="matrix(1, 0, 0, 1, 0.5, 0.5)"></path><text x="0" y="11.553750371932985" style="font: bold 12px sans-serif" text-anchor="start" fill="black" stroke="none" transform="matrix(1, 0, 0, 1, 8.5, 8.499999999999998)">code_aster_出力_メッシュとグループ_01</text></g><g transform="matrix(1, 0, 0, 1, 660, 120)"><path d="M 108.91666412353516,0 L 217.8333282470703,7.85125012397766 L 217.8333282470703,31.40500049591064 L 0,31.40500049591064 L 0,7.85125012397766 z" fill="#DDDDDD" stroke="none" transform="matrix(1, 0, 0, 1, 0.5, 0.5)"></path><path d="M 108.91666412353516,0 L 217.8333282470703,7.85125012397766 L 217.8333282470703,31.40500049591064 L 0,31.40500049591064 L 0,7.85125012397766 z" fill="none" stroke="black" stroke-width="1" stroke-linecap="butt" stroke-linejoin="miter" stroke-miterlimit="10" transform="matrix(1, 0, 0, 1, 0.5, 0.5)"></path><text x="0" y="11.553750371932985" style="font: bold 12px sans-serif" text-anchor="start" fill="black" stroke="none" transform="matrix(1, 0, 0, 1, 8.5, 8.499999999999998)">code_aster_出力_ログファイル_01</text></g><g transform="matrix(1, 0, 0, 1, 300, 300)"><path d="M 5,0 L 185.37285360182355,0 C 187.61142985266957,0 190.37285360182355,2.761423749153968 190.37285360182355,5 L 190.37285360182355,23.92784799421858 C 190.37285360182355,26.16642424506461 187.61142985266957,28.92784799421858 185.37285360182355,28.92784799421858 L 5,28.92784799421858 C 2.761423749153968,28.92784799421858 0,26.16642424506461 0,23.92784799421858 L 0,5 C 0,2.761423749153968 2.761423749153968,0 5,0 z" fill="#FFFF00" stroke="none" transform="matrix(1, 0, 0, 1, 0.5, 0.5)"></path><path d="M 5,0 L 185.37285360182355,0 C 187.61142985266957,0 190.37285360182355,2.761423749153968 190.37285360182355,5 L 190.37285360182355,23.92784799421858 C 190.37285360182355,26.16642424506461 187.61142985266957,28.92784799421858 185.37285360182355,28.92784799421858 L 5,28.92784799421858 C 2.761423749153968,28.92784799421858 0,26.16642424506461 0,23.92784799421858 L 0,5 C 0,2.761423749153968 2.761423749153968,0 5,0 z" fill="none" stroke="black" stroke-width="1" stroke-linecap="butt" stroke-linejoin="miter" stroke-miterlimit="10" transform="matrix(1, 0, 0, 1, 0.5, 0.5)"></path><text x="0" y="11.553750371932985" style="font: bold 12px sans-serif" text-anchor="start" fill="blue" stroke="none" transform="matrix(1, 0, 0, 1, 7.261423749153954, 7.261423749153966)">WFAS6_code_aster_更新_01</text></g><g transform="matrix(1, 0, 0, 1, 650, 190)"><path d="M 144.43333435058594,0 L 288.8666687011719,7.85125012397766 L 288.8666687011719,31.40500049591064 L 0,31.40500049591064 L 0,7.85125012397766 z" fill="#DDDDDD" stroke="none" transform="matrix(1, 0, 0, 1, 0.5, 0.5)"></path><path d="M 144.43333435058594,0 L 288.8666687011719,7.85125012397766 L 288.8666687011719,31.40500049591064 L 0,31.40500049591064 L 0,7.85125012397766 z" fill="none" stroke="black" stroke-width="1" stroke-linecap="butt" stroke-linejoin="miter" stroke-miterlimit="10" transform="matrix(1, 0, 0, 1, 0.5, 0.5)"></path><text x="0" y="11.553750371932985" style="font: bold 12px sans-serif" text-anchor="start" fill="black" stroke="none" transform="matrix(1, 0, 0, 1, 8.5, 8.499999999999998)">code_aster_出力_可視化ファイルアーカイブ_01</text></g><g transform="matrix(1, 0, 0, 1, 650, 240)"><path d="M 148,0 L 296,7.85125012397766 L 296,31.40500049591064 L 0,31.40500049591064 L 0,7.85125012397766 z" fill="#DDDDDD" stroke="none" transform="matrix(1, 0, 0, 1, 0.5, 0.5)"></path><path d="M 148,0 L 296,7.85125012397766 L 296,31.40500049591064 L 0,31.40500049591064 L 0,7.85125012397766 z" fill="none" stroke="black" stroke-width="1" stroke-linecap="butt" stroke-linejoin="miter" stroke-miterlimit="10" transform="matrix(1, 0, 0, 1, 0.5, 0.5)"></path><text x="0" y="11.553750371932985" style="font: bold 12px sans-serif" text-anchor="start" fill="black" stroke="none" transform="matrix(1, 0, 0, 1, 8.5, 8.499999999999998)">code_aster_可視化_弾性解析情報_アーカイブ_01</text></g><g transform="matrix(1, 0, 0, 1, 650, 290)"><path d="M 103.21666717529297,0 L 206.43333435058594,7.85125012397766 L 206.43333435058594,31.40500049591064 L 0,31.40500049591064 L 0,7.85125012397766 z" fill="#DDDDDD" stroke="none" transform="matrix(1, 0, 0, 1, 0.5, 0.5)"></path><path d="M 103.21666717529297,0 L 206.43333435058594,7.85125012397766 L 206.43333435058594,31.40500049591064 L 0,31.40500049591064 L 0,7.85125012397766 z" fill="none" stroke="black" stroke-width="1" stroke-linecap="butt" stroke-linejoin="miter" stroke-miterlimit="10" transform="matrix(1, 0, 0, 1, 0.5, 0.5)"></path><text x="0" y="11.553750371932985" style="font: bold 12px sans-serif" text-anchor="start" fill="black" stroke="none" transform="matrix(1, 0, 0, 1, 8.5, 8.499999999999998)">code_aster_可視化_最大温度_01</text></g><g transform="matrix(1, 0, 0, 1, 650, 340)"><path d="M 114.67500305175781,0 L 229.35000610351562,7.85125012397766 L 229.35000610351562,31.40500049591064 L 0,31.40500049591064 L 0,7.85125012397766 z" fill="#DDDDDD" stroke="none" transform="matrix(1, 0, 0, 1, 0.5, 0.5)"></path><path d="M 114.67500305175781,0 L 229.35000610351562,7.85125012397766 L 229.35000610351562,31.40500049591064 L 0,31.40500049591064 L 0,7.85125012397766 z" fill="none" stroke="black" stroke-width="1" stroke-linecap="butt" stroke-linejoin="miter" stroke-miterlimit="10" transform="matrix(1, 0, 0, 1, 0.5, 0.5)"></path><text x="0" y="11.553750371932985" style="font: bold 12px sans-serif" text-anchor="start" fill="black" stroke="none" transform="matrix(1, 0, 0, 1, 8.5, 8.499999999999998)">code_aster_可視化_疲労ダメージ_01</text></g><g transform="matrix(1, 0, 0, 1, 650, 390)"><path d="M 136,0 L 272,7.85125012397766 L 272,31.40500049591064 L 0,31.40500049591064 L 0,7.85125012397766 z" fill="#DDDDDD" stroke="none" transform="matrix(1, 0, 0, 1, 0.5, 0.5)"></path><path d="M 136,0 L 272,7.85125012397766 L 272,31.40500049591064 L 0,31.40500049591064 L 0,7.85125012397766 z" fill="none" stroke="black" stroke-width="1" stroke-linecap="butt" stroke-linejoin="miter" stroke-miterlimit="10" transform="matrix(1, 0, 0, 1, 0.5, 0.5)"></path><text x="0" y="11.553750371932985" style="font: bold 12px sans-serif" text-anchor="start" fill="black" stroke="none" transform="matrix(1, 0, 0, 1, 8.5, 8.499999999999998)">code_aster_可視化_疲労情報_アーカイブ_01</text></g><g transform="matrix(1, 0, 0, 1, 650, 440)"><path d="M 103.03333282470703,0 L 206.06666564941406,7.85125012397766 L 206.06666564941406,31.40500049591064 L 0,31.40500049591064 L 0,7.85125012397766 z" fill="#DDDDDD" stroke="none" transform="matrix(1, 0, 0, 1, 0.5, 0.5)"></path><path d="M 103.03333282470703,0 L 206.06666564941406,7.85125012397766 L 206.06666564941406,31.40500049591064 L 0,31.40500049591064 L 0,7.85125012397766 z" fill="none" stroke="black" stroke-width="1" stroke-linecap="butt" stroke-linejoin="miter" stroke-miterlimit="10" transform="matrix(1, 0, 0, 1, 0.5, 0.5)"></path><text x="0" y="11.553750371932985" style="font: bold 12px sans-serif" text-anchor="start" fill="black" stroke="none" transform="matrix(1, 0, 0, 1, 8.5, 8.499999999999998)">code_aster_最大温度_リスト_01</text></g><g transform="matrix(1, 0, 0, 1, 159.81178995985385, 27.68970454429013)"><path d="M 0,0 C 60.2330723066932,10.105053917518184 133.19264559736303,33.12828052435773 215.8985116671996,71.350538740382" fill="none" stroke="#2F2F2F" stroke-width="2.5" stroke-linecap="butt" stroke-linejoin="miter" stroke-miterlimit="10" transform="matrix(1, 0, 0, 1, 1.25, 1.25)"></path><path d="M 0,0 L 8,4 L 0,8 L 2,4 z" fill="#2F4F4F" stroke="none" transform="matrix(1.815498258329628, 0.8390268613114169, -0.8390268613114169, 1.815498258329628, 204.57288391664346, 57.706817385916445)"></path></g><g transform="matrix(1, 0, 0, 1, 191.99998654541403, 69.37706558063452)"><path d="M 0,0 C 28.389998255508118,0.20827603229453473 74.4582690962699,7.0914915449431675 160.2206250541109,29.745241268607742" fill="none" stroke="#2F2F2F" stroke-width="2.5" stroke-linecap="butt" stroke-linejoin="miter" stroke-miterlimit="10" transform="matrix(1, 0, 0, 1, 1.25, 1.25)"></path><path d="M 0,0 L 8,4 L 0,8 L 2,4 z" fill="#2F4F4F" stroke="none" transform="matrix(1.9336781914250882, 0.5107726030309377, -0.5107726030309377, 1.9336781914250882, 146.5774508391214, 18.418961377144417)"></path></g><g transform="matrix(1, 0, 0, 1, 204.29378485986697, 92.25164807981307)"><path d="M 0,2.0004546707445883 C 14.555143042611604,-0.31672107216201084 29.371855357168187,-0.5646740767684264 45.41114879430532,0.643730776046695" fill="none" stroke="#2F2F2F" stroke-width="2.5" stroke-linecap="butt" stroke-linejoin="miter" stroke-miterlimit="10" transform="matrix(1, 0, 0, 1, 1.25, 10.183127292062466)"></path><path d="M 0,0 L 8,4 L 0,8 L 2,4 z" fill="#2F4F4F" stroke="none" transform="matrix(1.9943478926039893, 0.15025472793235653, -0.15025472793235653, 1.9943478926039893, 29.810210618900836, 1.0723013102681733)"></path></g><g transform="matrix(1, 0, 0, 1, 157.7400734091381, 113.25637330993972)"><path d="M 0,30.58345727673037 C 77.26047981930236,6.672454053136192 122.26154287148742,-1.5574635260298066 91.01068856612065,0.16980217473410164" fill="none" stroke="#2F2F2F" stroke-width="2.5" stroke-linecap="butt" stroke-linejoin="miter" stroke-miterlimit="10" transform="matrix(1, 0, 0, 1, 1.25, 10.309843971896774)"></path><path d="M 0,0 L 8,4 L 0,8 L 2,4 z" fill="#2F4F4F" stroke="none" transform="matrix(-1.9969520989649847, 0.11037352236538275, -0.11037352236538275, -1.9969520989649847, 109.17627549678454, 17.029279602385063)"></path></g><g transform="matrix(1, 0, 0, 1, 138.3026160120075, 120.21352882226142)"><path d="M 0,74.54480093284855 C 79.59848245965478,34.651065801554694 150.7862008382844,9.804360246025198 198.41075274804626,0" fill="none" stroke="#2F2F2F" stroke-width="2.5" stroke-linecap="butt" stroke-linejoin="miter" stroke-miterlimit="10" transform="matrix(1, 0, 0, 1, 1.25, 9.315138780467489)"></path><path d="M 0,0 L 8,4 L 0,8 L 2,4 z" fill="#2F4F4F" stroke="none" transform="matrix(1.9589197289927758, -0.4032784340413825, 0.4032784340413825, 1.9589197289927758, 180.89682131544214, 4.407326553848138)"></path></g><g transform="matrix(1, 0, 0, 1, 129.75749990204508, 120.63071621411363)"><path d="M 0,124.41666429631249 C 80.8614810936995,68.7771110349043 161.35888366581895,27.30655237814861 237.10945905734036,0" fill="none" stroke="#2F2F2F" stroke-width="2.5" stroke-linecap="butt" stroke-linejoin="miter" stroke-miterlimit="10" transform="matrix(1, 0, 0, 1, 1.25, 8.96669129097457)"></path><path d="M 0,0 L 8,4 L 0,8 L 2,4 z" fill="#2F4F4F" stroke="none" transform="matrix(1.8814869535499041, -0.6782380434784687, 0.6782380434784687, 1.8814869535499041, 219.1538677782523, 6.7057668463419375)"></path></g><g transform="matrix(1, 0, 0, 1, 124.83749673315785, 121.15306401812842)"><path d="M 0,174.31161463090953 C 81.41670268159675,103.0345773446877 166.6947062654422,44.93237996914647 254.05699485694052,0" fill="none" stroke="#2F2F2F" stroke-width="2.5" stroke-linecap="butt" stroke-linejoin="miter" stroke-miterlimit="10" transform="matrix(1, 0, 0, 1, 1.25, 8.503470874315068)"></path><path d="M 0,0 L 8,4 L 0,8 L 2,4 z" fill="#2F4F4F" stroke="none" transform="matrix(1.7785490831811261, -0.9147475928995799, 0.9147475928995799, 1.7785490831811261, 236.03033727830262, 8.664629081236992)"></path></g><g transform="matrix(1, 0, 0, 1, 121.62217571546014, 121.71668915129294)"><path d="M 0,224.2279277458802 C 81.66099744779089,137.32177517372548 169.85362310774386,62.5807343830231 263.7268416660859,0" fill="none" stroke="#2F2F2F" stroke-width="2.5" stroke-linecap="butt" stroke-linejoin="miter" stroke-miterlimit="10" transform="matrix(1, 0, 0, 1, 1.25, 7.98850461083952)"></path><path d="M 0,0 L 8,4 L 0,8 L 2,4 z" fill="#2F4F4F" stroke="none" transform="matrix(1.6641121357421154, -1.1093830716555104, 1.1093830716555104, 1.6641121357421154, 245.89435622565586, 10.261812176942897)"></path></g><g transform="matrix(1, 0, 0, 1, 119.35439466990871, 122.27640374705128)"><path d="M 0,274.162216880967 C 81.78093791815112,171.5744161804172 171.93864527148187,80.18849038190928 270.02727513343325,0" fill="none" stroke="#2F2F2F" stroke-width="2.5" stroke-linecap="butt" stroke-linejoin="miter" stroke-miterlimit="10" transform="matrix(1, 0, 0, 1, 1.25, 7.467907464311009)"></path><path d="M 0,0 L 8,4 L 0,8 L 2,4 z" fill="#2F4F4F" stroke="none" transform="matrix(1.548423880958002, -1.2658528685747643, 1.2658528685747643, 1.548423880958002, 252.5522606709912, 11.533961323364498)"></path></g><g transform="matrix(1, 0, 0, 1, 437.36151978445616, -7.236320536509908)"><path d="M 0,98.25913408558378 C 97.26249675763927,50.492234568135046 188.8808398501202,17.73944394862872 263.6287406055892,0" fill="none" stroke="#2F2F2F" stroke-width="2.5" stroke-linecap="butt" stroke-linejoin="miter" stroke-miterlimit="10" transform="matrix(1, 0, 0, 1, 1.25, 9.256776030708458)"></path><path d="M 0,0 L 8,4 L 0,8 L 2,4 z" fill="#2F4F4F" stroke="none" transform="matrix(1.945950229046324, -0.46181999315161637, 0.46181999315161637, 1.945950229046324, 245.99088368608898, 4.8984450563119015)"></path></g><g transform="matrix(1, 0, 0, 1, 451.0520045407177, 38.85284392852843)"><path d="M 0,52.0403810291443 C 94.52951654705032,20.329405068314756 168.87603535070627,4.201736934919353 207.70089803323424,0" fill="none" stroke="#2F2F2F" stroke-width="2.5" stroke-linecap="butt" stroke-linejoin="miter" stroke-miterlimit="10" transform="matrix(1, 0, 0, 1, 1.25, 9.447753668864639)"></path><path d="M 0,0 L 8,4 L 0,8 L 2,4 z" fill="#2F4F4F" stroke="none" transform="matrix(1.9883897041921421, -0.21518918249457986, 0.21518918249457986, 1.9883897041921421, 190.68882881762272, 2.8233029033)"></path></g><g transform="matrix(1, 0, 0, 1, 493.45393014455175, 73.12490565537422)"><path d="M 0,17.3497205366302 C 94.63102861668705,1.341021295450588 119.32399293192833,-0.6418849835079214 145.29622248445622,0" fill="none" stroke="#2F2F2F" stroke-width="2.5" stroke-linecap="butt" stroke-linejoin="miter" stroke-miterlimit="10" transform="matrix(1, 0, 0, 1, 1.25, 9.941973942548254)"></path><path d="M 0,0 L 8,4 L 0,8 L 2,4 z" fill="#2F4F4F" stroke="none" transform="matrix(1.9993894839679458, 0.04941347385472205, -0.04941347385472205, 1.9993894839679458, 129.24906576614757, 1.024401478911333)"></path></g><g transform="matrix(1, 0, 0, 1, 566.172682085781, 109.70653307608936)"><path d="M 0,0 C 31.799386320825192,-0.8029207941598884 62.659015513851614,1.0141156909865572 137.66895872267048,14.059152760798398" fill="none" stroke="#2F2F2F" stroke-width="2.5" stroke-linecap="butt" stroke-linejoin="miter" stroke-miterlimit="10" transform="matrix(1, 0, 0, 1, 1.25, 1.25)"></path><path d="M 0,0 L 8,4 L 0,8 L 2,4 z" fill="#2F4F4F" stroke="none" transform="matrix(1.9704242654502466, 0.3426780035614425, -0.3426780035614425, 1.9704242654502466, 123.04106448058917, 4.01469266872515)"></path></g><g transform="matrix(1, 0, 0, 1, 390.91404266324724, 128.67191476741266)"><path d="M 10.983683976387056,0 C 19.958282165509445,57.73609506351394 16.266255039695068,114.42751703509634 0,170.09815245815116" fill="none" stroke="#2F2F2F" stroke-width="2.5" stroke-linecap="butt" stroke-linejoin="miter" stroke-miterlimit="10" transform="matrix(1, 0, 0, 1, 9.138789939850952, 1.25)"></path><path d="M 0,0 L 8,4 L 0,8 L 2,4 z" fill="#2F4F4F" stroke="none" transform="matrix(-0.5609211284593382, 1.9197310977446562, -1.9197310977446562, -0.5609211284593382, 21.08554392273395, 156.77412264115895)"></path></g><g transform="matrix(1, 0, 0, 1, 432.3150887055195, 212.61140792835818)"><path d="M 0,78.33206348469199 C 107.34179246720583,36.83278450987419 203.19033894829505,10.722064094905903 267.17271256216935,0" fill="none" stroke="#2F2F2F" stroke-width="2.5" stroke-linecap="butt" stroke-linejoin="miter" stroke-miterlimit="10" transform="matrix(1, 0, 0, 1, 1.25, 9.376229477272798)"></path><path d="M 0,0 L 8,4 L 0,8 L 2,4 z" fill="#2F4F4F" stroke="none" transform="matrix(1.9724954393939553, -0.33054763888136784, 0.33054763888136784, 1.9724954393939553, 249.83431077179523, 3.7959026501886033)"></path></g><g transform="matrix(1, 0, 0, 1, 453.188016542999, 254.8624229016029)"><path d="M 0,36.030626068400466 C 99.21280133711821,11.402222085296842 166.4143576317872,1.5990292716277281 195.5627341203492,0" fill="none" stroke="#2F2F2F" stroke-width="2.5" stroke-linecap="butt" stroke-linejoin="miter" stroke-miterlimit="10" transform="matrix(1, 0, 0, 1, 1.25, 9.486488059732341)"></path><path d="M 0,0 L 8,4 L 0,8 L 2,4 z" fill="#2F4F4F" stroke="none" transform="matrix(1.9969973466071869, -0.10955180347148755, 0.10955180347148755, 1.9969973466071869, 178.90004946030214, 1.9296890028112381)"></path></g><g transform="matrix(1, 0, 0, 1, 488.73589739026, 287.37668201926834)"><path d="M 0,6.3669276992655455 C 53.87120004080441,-0.7703110851529118 106.74701526853084,-2.0642448679743666 160.96677382507653,2.136740160116517" fill="none" stroke="#2F2F2F" stroke-width="2.5" stroke-linecap="butt" stroke-linejoin="miter" stroke-miterlimit="10" transform="matrix(1, 0, 0, 1, 1.25, 8.726851383176085)"></path><path d="M 0,0 L 8,4 L 0,8 L 2,4 z" fill="#2F4F4F" stroke="none" transform="matrix(1.9940236354381835, 0.15449835375786392, -0.15449835375786392, 1.9940236354381835, 145.38556633888342, 1.0742609945980242)"></path></g><g transform="matrix(1, 0, 0, 1, 490.12282582406635, 314.72258885899316)"><path d="M 0,0 C 63.60499638731574,0.6704832196748498 125.74263547912517,7.605657762109104 218.94437148329757,28.14224080129418" fill="none" stroke="#2F2F2F" stroke-width="2.5" stroke-linecap="butt" stroke-linejoin="miter" stroke-miterlimit="10" transform="matrix(1, 0, 0, 1, 1.25, 1.25)"></path><path d="M 0,0 L 8,4 L 0,8 L 2,4 z" fill="#2F4F4F" stroke="none" transform="matrix(1.9531472226813935, 0.4303671996469515, -0.4303671996469515, 1.9531472226813935, 204.81408888909354, 17.421530713569517)"></path></g><g transform="matrix(1, 0, 0, 1, 488.952463642644, 325.91332499794595)"><path d="M 0,0 C 62.88316843914589,8.116474342622666 154.20282015473282,29.435782518259714 257.2269983170044,65.40016533853071" fill="none" stroke="#2F2F2F" stroke-width="2.5" stroke-linecap="butt" stroke-linejoin="miter" stroke-miterlimit="10" transform="matrix(1, 0, 0, 1, 1.25, 1.25)"></path><path d="M 0,0 L 8,4 L 0,8 L 2,4 z" fill="#2F4F4F" stroke="none" transform="matrix(1.8882537357415208, 0.6591644934750287, -0.6591644934750287, 1.8882537357415208, 244.56349953710162, 52.994252201026896)"></path></g><g transform="matrix(1, 0, 0, 1, 448.36889695166167, 328.3084541752796)"><path d="M 0,0 C 84.69433131365122,22.91892010178674 180.3356925726481,60.66760387555479 277.7350528819147,112.66734989870622" fill="none" stroke="#2F2F2F" stroke-width="2.5" stroke-linecap="butt" stroke-linejoin="miter" stroke-miterlimit="10" transform="matrix(1, 0, 0, 1, 1.25, 1.25)"></path><path d="M 0,0 L 8,4 L 0,8 L 2,4 z" fill="#2F4F4F" stroke="none" transform="matrix(1.7643039225432875, 0.9419297579428997, -0.9419297579428997, 1.7643039225432875, 267.25618857206837, 98.35373126601843)"></path></g></g></g><clipPath id="mainClip2326"><rect x="0" y="0" width="939" height="505"></rect></clipPath></svg>